{
	"asset":{
		"generator":"Khronos glTF Blender I/O v4.4.55",
		"version":"2.0"
	},
	"scene":0,
	"scenes":[
		{
			"name":"Scene",
			"nodes":[
				2
			]
		}
	],
	"nodes":[
		{
			"mesh":0,
			"name":"Object_2",
			"rotation":[
				-0.7071068286895752,
				0,
				0,
				0.7071068286895752
			],
			"scale":[
				10.000000953674316,
				9.999999046325684,
				9.999998092651367
			]
		},
		{
			"children":[
				0
			],
			"name":"medkit.obj.cleaner.materialmerger.gles"
		},
		{
			"children":[
				1
			],
			"name":"Sketchfab_model",
			"rotation":[
				-0.70710688829422,
				0,
				0,
				0.7071066498756409
			],
			"scale":[
				5.3183746337890625,
				6.025458812713623,
				5.318375110626221
			]
		}
	],
	"materials":[
		{
			"doubleSided":true,
			"name":"material_0",
			"normalTexture":{
				"index":0
			},
			"pbrMetallicRoughness":{
				"baseColorTexture":{
					"index":1
				},
				"metallicRoughnessTexture":{
					"index":2
				}
			}
		}
	],
	"meshes":[
		{
			"name":"Object_0",
			"primitives":[
				{
					"attributes":{
						"POSITION":0,
						"NORMAL":1,
						"TEXCOORD_0":2
					},
					"indices":3,
					"material":0
				}
			]
		}
	],
	"textures":[
		{
			"sampler":0,
			"source":0
		},
		{
			"sampler":0,
			"source":1
		},
		{
			"sampler":0,
			"source":2
		}
	],
	"images":[
		{
			"mimeType":"image/png",
			"name":"material_0_normal",
			"uri":"material_0_normal.png"
		},
		{
			"mimeType":"image/png",
			"name":"material_0_baseColor",
			"uri":"material_0_baseColor.png"
		},
		{
			"mimeType":"image/png",
			"name":"material_0_metallicRoughness",
			"uri":"material_0_metallicRoughness.png"
		}
	],
	"accessors":[
		{
			"bufferView":0,
			"componentType":5126,
			"count":7930,
			"max":[
				0.007895833812654018,
				0.01232213992625475,
				0.022304359823465347
			],
			"min":[
				-0.007895833812654018,
				-0.015476870350539684,
				-0.022304359823465347
			],
			"type":"VEC3"
		},
		{
			"bufferView":1,
			"componentType":5126,
			"count":7930,
			"type":"VEC3"
		},
		{
			"bufferView":2,
			"componentType":5126,
			"count":7930,
			"type":"VEC2"
		},
		{
			"bufferView":3,
			"componentType":5123,
			"count":21192,
			"type":"SCALAR"
		}
	],
	"bufferViews":[
		{
			"buffer":0,
			"byteLength":95160,
			"byteOffset":0,
			"target":34962
		},
		{
			"buffer":0,
			"byteLength":95160,
			"byteOffset":95160,
			"target":34962
		},
		{
			"buffer":0,
			"byteLength":63440,
			"byteOffset":190320,
			"target":34962
		},
		{
			"buffer":0,
			"byteLength":42384,
			"byteOffset":253760,
			"target":34963
		}
	],
	"samplers":[
		{
			"magFilter":9729,
			"minFilter":9987
		}
	],
	"buffers":[
		{
			"byteLength":296144,
			"uri":"medkit.bin"
		}
	]
}
