{
	"asset":{
		"generator":"Khronos glTF Blender I/O v4.4.55",
		"version":"2.0"
	},
	"scene":0,
	"scenes":[
		{
			"name":"Scene",
			"nodes":[
				4
			]
		}
	],
	"nodes":[
		{
			"mesh":0,
			"name":"Object_4"
		},
		{
			"children":[
				0
			],
			"name":"scp_999_mug_0",
			"rotation":[
				0,
				-0.03033366985619068,
				0,
				0.999539852142334
			],
			"translation":[
				0.29793083667755127,
				0.9094737768173218,
				0
			]
		},
		{
			"children":[
				1
			],
			"name":"GLTF_SceneRootNode",
			"rotation":[
				0.70710688829422,
				0,
				0,
				0.7071066498756409
			]
		},
		{
			"children":[
				2
			],
			"name":"root"
		},
		{
			"children":[
				3
			],
			"name":"Sketchfab_model",
			"rotation":[
				-0.70710688829422,
				0,
				0,
				0.7071066498756409
			]
		}
	],
	"materials":[
		{
			"doubleSided":true,
			"name":"scp_999_face",
			"pbrMetallicRoughness":{
				"baseColorTexture":{
					"index":0
				},
				"metallicFactor":0,
				"roughnessFactor":0.20000000298023224
			}
		}
	],
	"meshes":[
		{
			"name":"Object_0",
			"primitives":[
				{
					"attributes":{
						"POSITION":0,
						"NORMAL":1,
						"TEXCOORD_0":2
					},
					"indices":3,
					"material":0
				}
			]
		}
	],
	"textures":[
		{
			"sampler":0,
			"source":0
		}
	],
	"images":[
		{
			"mimeType":"image/png",
			"name":"scp_999_face_baseColor",
			"uri":"scp_999_face_baseColor.png"
		}
	],
	"accessors":[
		{
			"bufferView":0,
			"componentType":5126,
			"count":15256,
			"max":[
				1.6064552068710327,
				1.5550941228866577,
				0.9903141856193542
			],
			"min":[
				-1.270005464553833,
				-0.8900288343429565,
				-0.9903139472007751
			],
			"type":"VEC3"
		},
		{
			"bufferView":1,
			"componentType":5126,
			"count":15256,
			"type":"VEC3"
		},
		{
			"bufferView":2,
			"componentType":5126,
			"count":15256,
			"type":"VEC2"
		},
		{
			"bufferView":3,
			"componentType":5123,
			"count":70176,
			"type":"SCALAR"
		}
	],
	"bufferViews":[
		{
			"buffer":0,
			"byteLength":183072,
			"byteOffset":0,
			"target":34962
		},
		{
			"buffer":0,
			"byteLength":183072,
			"byteOffset":183072,
			"target":34962
		},
		{
			"buffer":0,
			"byteLength":122048,
			"byteOffset":366144,
			"target":34962
		},
		{
			"buffer":0,
			"byteLength":140352,
			"byteOffset":488192,
			"target":34963
		}
	],
	"samplers":[
		{
			"magFilter":9729,
			"minFilter":9987
		}
	],
	"buffers":[
		{
			"byteLength":628544,
			"uri":"SCP-999.bin"
		}
	]
}
